# xmcd CD database file
#
# Track frame offsets:
#	150
#	18422
#	38425
#	59962
#	81142
#	104945
#	124932
#	152982
#	170722
#	190777
#	217425
#
# Disc length: 3100 seconds
#
# Revision: 0
# Processed by: cddbd v1.4PL0 Copyright (c) Steve Scherf et al.
# Submitted via: CDex 1.40Beta8
#
DISCID=a90c1a0b
DTITLE=Noah Wotherspoon - Buzz Me
DYEAR=2000
DGENRE=Blues
TTITLE0=Buzz Me
TTITLE1=The Highway Song
TTITLE2=Lookin' Good
TTITLE3=Cold Hearts
TTITLE4=Pee Wee's Theme
TTITLE5=Leave My Mama Alone
TTITLE6=Satori In Chicago
TTITLE7=Walking Dr. Bill
TTITLE8=Cloudy Day
TTITLE9=The Sky Is Crying
TTITLE10=Underpass At Sunrise
EXTD=YEAR: 2000 ID3G: 0
EXTT0=
EXTT1=
EXTT2=
EXTT3=
EXTT4=
EXTT5=
EXTT6=
EXTT7=
EXTT8=
EXTT9=
EXTT10=
PLAYORDER=
